<svg xmlns="http://www.w3.org/2000/svg" xmlns:xlink="http://www.w3.org/1999/xlink" width="529.55" height="529.549" viewBox="0 0 529.55 529.549">
  <defs>
    <linearGradient id="linear-gradient" x1="0.5" y1="-0.065" x2="0.5" y2="0.97" gradientUnits="objectBoundingBox">
      <stop offset="0" stop-color="#fff"/>
      <stop offset="0.216" stop-color="#fff" stop-opacity="0.761"/>
      <stop offset="0.604" stop-color="#fff" stop-opacity="0.357"/>
      <stop offset="0.874" stop-color="#fff" stop-opacity="0.098"/>
      <stop offset="1" stop-color="#fff" stop-opacity="0"/>
    </linearGradient>
    <linearGradient id="linear-gradient-2" x1="-0.261" y1="-0.131" x2="0.618" y2="0.655" xlink:href="#linear-gradient"/>
    <linearGradient id="linear-gradient-3" y1="1.323" y2="0.054" xlink:href="#linear-gradient"/>
    <linearGradient id="linear-gradient-4" x1="0.331" y1="0.994" x2="0.747" y2="-0.099" xlink:href="#linear-gradient"/>
  </defs>
  <g id="Group_41" data-name="Group 41" transform="translate(16.214 -38.45)">
    <g id="OBJECTS">
      <circle id="Ellipse_1" data-name="Ellipse 1" cx="187.224" cy="187.224" r="187.224" transform="translate(-16.214 303.225) rotate(-45)" opacity="0.2" fill="url(#linear-gradient)"/>
      <g id="Group_1" data-name="Group 1">
        <path id="Rectangle_1" data-name="Rectangle 1" d="M0,0H391.863a0,0,0,0,1,0,0V.113A12.777,12.777,0,0,1,379.086,12.89H12.777A12.777,12.777,0,0,1,0,.113V0A0,0,0,0,1,0,0Z" transform="translate(54.551 379.711)" fill="#593730"/>
        <path id="Path_1" data-name="Path 1" d="M424.377,384.226c0,1.883-77.491,3.409-173.081,3.409s-173.081-1.526-173.081-3.409,77.491-3.409,173.081-3.409S424.377,382.343,424.377,384.226Z" opacity="0.25"/>
        <rect id="Rectangle_2" data-name="Rectangle 2" width="329.025" height="107.399" transform="translate(85.969 392.601)" fill="#43302b"/>
        <rect id="Rectangle_3" data-name="Rectangle 3" width="329.069" height="12.521" transform="translate(85.926 392.601)" opacity="0.2"/>
      </g>
      <g id="Group_13" data-name="Group 13">
        <path id="Path_2" data-name="Path 2" d="M311.267,365.606v-99.88a19.438,19.438,0,0,0-19.382-19.381H205.65a19.438,19.438,0,0,0-19.382,19.381v99.88Z" fill="#04424c"/>
        <g id="Group_12" data-name="Group 12">
          <g id="Group_9" data-name="Group 9">
            <g id="Group_8" data-name="Group 8">
              <path id="Path_3" data-name="Path 3" d="M225.1,186.474a14.65,14.65,0,1,1-14.648-14.645A14.647,14.647,0,0,1,225.1,186.474Z" fill="#593730"/>
              <path id="Path_4" data-name="Path 4" d="M301.954,185.529a14.645,14.645,0,0,1-8.33,13.218,14.2,14.2,0,0,1-2.151.828,14.653,14.653,0,1,1,2.475-27.1c.346.177.682.366,1.011.567A14.637,14.637,0,0,1,301.954,185.529Z" fill="#593730"/>
              <path id="Path_5" data-name="Path 5" d="M295.654,185.057a46.973,46.973,0,0,1-1.449,11.611q-.264,1.049-.581,2.079t-.661,2.011a46.94,46.94,0,0,1-91.173-15.386c0-.106,0-.209,0-.315a47.24,47.24,0,0,1,.665-7.915,45.763,45.763,0,0,1,1.38-5.822,46.9,46.9,0,0,1,8.063-15.362q1.454-1.837,3.083-3.523,1.6-1.653,3.352-3.145a46.825,46.825,0,0,1,19.219-9.828c.935-.228,1.883-.43,2.838-.6q1.179-.213,2.374-.363.957-.121,1.93-.2,1.992-.173,4.029-.172a46.8,46.8,0,0,1,33.626,14.191c.366.376.724.759,1.078,1.147a47.114,47.114,0,0,1,3.228,3.952q.564.774,1.095,1.569a46.729,46.729,0,0,1,6.2,13.489q.231.84.434,1.694a45.81,45.81,0,0,1,.862,4.67A47.283,47.283,0,0,1,295.654,185.057Z" fill="#593730"/>
              <g id="Group_2" data-name="Group 2">
                <path id="Path_6" data-name="Path 6" d="M289.609,380.817l-.2-26.651c0-5-.514-4.709.225-5V274.621a6.141,6.141,0,0,0-6.306-6.381H214.207a6.018,6.018,0,0,0-6.314,6.381v78.844l-.135,27.352Z" fill="#fff"/>
                <path id="Path_7" data-name="Path 7" d="M230.965,268.237s.632,19.069,17.531,19.069c19.03,0,17.486-19.069,17.486-19.069Z" fill="#2e7fdb"/>
              </g>
              <path id="Path_8" data-name="Path 8" d="M259.068,250.347v17.888a15.2,15.2,0,0,1-.351,2.87c-.691,3.262-2.778,8.135-9.025,8.135-7.573,0-10.1-4.873-10.947-8.135a12.783,12.783,0,0,1-.421-2.87V250.347Z" fill="#f1997c"/>
              <path id="Path_9" data-name="Path 9" d="M259.068,250.347v9.835a22.9,22.9,0,0,1-9.6,1.612c-5.579-.163-8.427-.843-11.236-1.966l.09-9.481Z" fill="#ea7764"/>
              <g id="Group_3" data-name="Group 3">
                <path id="Path_10" data-name="Path 10" d="M281.8,202.435s3.612-5.007,11.435-2.5,3,27.857-11.486,30.044Z" fill="#f1997c"/>
                <path id="Path_11" data-name="Path 11" d="M285.052,209.092s1.848-4.62,5.729-4.435,2.587,11.458-5.729,17.741Z" fill="#ea7764"/>
              </g>
              <g id="Group_4" data-name="Group 4">
                <path id="Path_12" data-name="Path 12" d="M215.907,202.435s-3.612-5.007-11.435-2.5-3,27.857,11.486,30.044Z" fill="#f1997c"/>
                <path id="Path_13" data-name="Path 13" d="M212.66,209.092s-1.848-4.62-5.729-4.435-2.587,11.458,5.729,17.741Z" fill="#ea7764"/>
              </g>
              <g id="Group_5" data-name="Group 5">
                <path id="Path_14" data-name="Path 14" d="M248.693,256.99c-.718,0-1.431-.022-2.14-.062A9.45,9.45,0,0,0,248.693,256.99Z" fill="none"/>
                <path id="Path_15" data-name="Path 15" d="M286.884,187.006v31.788a38.3,38.3,0,0,1-38.188,38.2c-.727,0-1.43-.024-2.145-.071a38.3,38.3,0,0,1-36.043-38.13V187.006a38.188,38.188,0,0,1,76.376,0Z" fill="#fdbc95"/>
              </g>
              <g id="Group_6" data-name="Group 6">
                <path id="Path_16" data-name="Path 16" d="M230.534,212.6h0a3.947,3.947,0,0,1-3.936-3.936v-3.987a3.947,3.947,0,0,1,3.936-3.936h0a3.948,3.948,0,0,1,3.937,3.936v3.987A3.948,3.948,0,0,1,230.534,212.6Z" fill="#182632"/>
                <path id="Path_17" data-name="Path 17" d="M266.2,212.836h0a3.948,3.948,0,0,1-3.936-3.936v-3.987a3.948,3.948,0,0,1,3.936-3.936h0a3.948,3.948,0,0,1,3.937,3.936V208.9A3.948,3.948,0,0,1,266.2,212.836Z" fill="#182632"/>
              </g>
              <path id="Path_18" data-name="Path 18" d="M222.941,188.973a17.422,17.422,0,0,1,11.214-3.668,2.466,2.466,0,0,1,2.341,2.54h0a2.463,2.463,0,0,1-2.035,2.355,42.016,42.016,0,0,0-9.219,2.57,2.235,2.235,0,0,1-3.159-1.8h0A2.229,2.229,0,0,1,222.941,188.973Z" fill="#593730"/>
              <path id="Path_19" data-name="Path 19" d="M274.173,189.268a17.428,17.428,0,0,0-11.215-3.667,2.466,2.466,0,0,0-2.34,2.539h0a2.464,2.464,0,0,0,2.034,2.356,42.009,42.009,0,0,1,9.219,2.569,2.235,2.235,0,0,0,3.16-1.8h0A2.231,2.231,0,0,0,274.173,189.268Z" fill="#593730"/>
              <path id="Path_20" data-name="Path 20" d="M266.653,225.059a17.715,17.715,0,0,1-.456,4.044c-.025.113-.052.224-.081.336a18.064,18.064,0,0,1-4.422,8.105c-.015.015-.03.032-.044.047a18.2,18.2,0,0,1-30.845-8.152c-.027-.112-.054-.223-.078-.336a18.413,18.413,0,0,1-.457-4.044Z" fill="#182632"/>
              <path id="Path_21" data-name="Path 21" d="M266.653,225.059a17.715,17.715,0,0,1-.456,4.044c-.025.113-.052.224-.081.336H230.8c-.027-.112-.054-.223-.078-.336a18.413,18.413,0,0,1-.457-4.044Z" fill="#fff"/>
              <path id="Path_22" data-name="Path 22" d="M261.65,237.59a18.176,18.176,0,0,1-26.36,0c.53-.18,1.05-.34,1.58-.5h.01c7.45-2.19,14.95-1.99,22.88,0C260.39,237.24,261.02,237.41,261.65,237.59Z" fill="#fd5672"/>
              <path id="Path_23" data-name="Path 23" d="M241.048,216.87a8.058,8.058,0,0,1,7.936-4.255c5.866.345,7.361,4.255,7.361,4.255Z" fill="#f1997c"/>
              <path id="Rectangle_4" data-name="Rectangle 4" d="M2.691,0H8.8A2.692,2.692,0,0,1,11.5,2.692v.22A2.692,2.692,0,0,1,8.8,5.6H2.692A2.692,2.692,0,0,1,0,2.912V2.691A2.691,2.691,0,0,1,2.691,0Z" transform="translate(215.102 214.603)" fill="#f1997c"/>
              <path id="Path_24" data-name="Path 24" d="M215.958,181.287s0,14.795-5.35,17.944a33.744,33.744,0,0,1-.1-17.944Z" fill="#593730"/>
              <path id="Path_25" data-name="Path 25" d="M282.424,181.277s-.005,14.8,5.35,17.945c1.543-5.287,1.05-12.751-.625-19.52Z" fill="#593730"/>
              <path id="Rectangle_5" data-name="Rectangle 5" d="M2.691,0H8.8A2.692,2.692,0,0,1,11.5,2.692v.22A2.692,2.692,0,0,1,8.8,5.6H2.691A2.691,2.691,0,0,1,0,2.912V2.691A2.691,2.691,0,0,1,2.691,0Z" transform="translate(271.941 214.603)" fill="#f1997c"/>
              <g id="Group_7" data-name="Group 7">
                <path id="Path_26" data-name="Path 26" d="M243.13,204.249a12.221,12.221,0,1,1-6.255-10.665,12.209,12.209,0,0,1,6.255,10.665Z" fill="#fffcff" opacity="0.2"/>
                <path id="Path_27" data-name="Path 27" d="M242.835,201.575l-14.592,14.593a12.127,12.127,0,0,1-5.972-3.295L239.54,195.6A12.154,12.154,0,0,1,242.835,201.575Z" fill="#fffcff" opacity="0.5"/>
                <path id="Path_28" data-name="Path 28" d="M236.875,193.584,220.251,210.2a12.129,12.129,0,0,1-1.359-3.786l14.193-14.194A12.206,12.206,0,0,1,236.875,193.584Z" fill="#fffcff" opacity="0.5"/>
                <path id="Path_29" data-name="Path 29" d="M278.523,204.249a12.221,12.221,0,1,1-6.255-10.665,12.209,12.209,0,0,1,6.255,10.665Z" fill="#fffcff" opacity="0.2"/>
                <path id="Path_30" data-name="Path 30" d="M278.228,201.575l-14.592,14.593a12.127,12.127,0,0,1-5.972-3.295L274.933,195.6A12.162,12.162,0,0,1,278.228,201.575Z" fill="#fffcff" opacity="0.5"/>
                <path id="Path_31" data-name="Path 31" d="M272.268,193.584,255.644,210.2a12.129,12.129,0,0,1-1.359-3.786l14.193-14.194A12.206,12.206,0,0,1,272.268,193.584Z" fill="#fffcff" opacity="0.5"/>
                <path id="Path_32" data-name="Path 32" d="M287.366,199.451a18.471,18.471,0,0,0-7.648,3.455c.04.437.063.89.063,1.342a13.8,13.8,0,0,1-27.6.461,12.043,12.043,0,0,0-7.5.04,13.8,13.8,0,1,1-27.464-2.415,19.087,19.087,0,0,0-6.9-2.883h-3.963s.786-4.011,4.448-4.011c2.589,0,5.877,1.907,7.569,3.01a13.794,13.794,0,0,1,26.1,3.352,19.044,19.044,0,0,1,3.891-.532,16.484,16.484,0,0,1,4.035.5,13.8,13.8,0,0,1,26.288-2.891c1.35-.937,5.226-3.439,8.2-3.439,3.661,0,4.447,4.011,4.447,4.011Zm-45.85,4.8a10.627,10.627,0,1,0-10.627,10.627A10.646,10.646,0,0,0,241.516,204.248Zm35.089,0a10.627,10.627,0,1,0-10.627,10.627A10.642,10.642,0,0,0,276.605,204.248Z" fill="#182632"/>
              </g>
              <path id="Path_33" data-name="Path 33" d="M287.149,152.3c0,.356-.007.712-.024,1.065a25.857,25.857,0,0,1-.472,4.051c-.034.185-.071.369-.115.55a26.461,26.461,0,1,1-48.988-18.5q.405-.737.861-1.441a25.967,25.967,0,0,1,2.1-2.828A26.458,26.458,0,0,1,287.149,152.3Z" fill="#593730"/>
              <path id="Path_34" data-name="Path 34" d="M250.611,152.3a19.531,19.531,0,0,1-38.146,5.914,19.007,19.007,0,0,1-.569-2.254,19.659,19.659,0,0,1-.344-3.591V152.3a19.53,19.53,0,0,1,28.954-17.105,19.283,19.283,0,0,1,3.479,2.45c.24.208.476.427.707.653A19.459,19.459,0,0,1,250.611,152.3Z" fill="#593730"/>
              <path id="Path_35" data-name="Path 35" d="M227.616,166.945a14.646,14.646,0,1,1-16.064-14.578,14.15,14.15,0,0,1,1.419-.069,14.637,14.637,0,0,1,14.645,14.647Z" fill="#593730"/>
              <path id="Path_36" data-name="Path 36" d="M296.282,166.945a14.584,14.584,0,0,1-1.323,6.094c-.177.386-.368.761-.577,1.127a14.651,14.651,0,0,1-20.4,5.269,14.649,14.649,0,0,1,7.655-27.137c.238,0,.474,0,.71.017.336.015.67.044,1,.083a14.442,14.442,0,0,1,3.776.965A14.65,14.65,0,0,1,296.282,166.945Z" fill="#593730"/>
            </g>
            <path id="Path_37" data-name="Path 37" d="M301.954,185.529a14.645,14.645,0,0,1-8.33,13.218q-.306,1.017-.661,2.011c-.729-.54-1.252-.977-1.49-1.183l-.143-.123a18.612,18.612,0,0,0,2.875-2.784c5.006-6.06,3.369-12.991,1.039-17.832a30.568,30.568,0,0,0-1.8-3.217,26.355,26.355,0,0,0-2.109-2.894q.1-.635.155-1.238a18.79,18.79,0,0,0-.383-6.616,12.224,12.224,0,0,0-3.354-5.888,11.526,11.526,0,0,0-1.21-1.019,10.259,10.259,0,0,0-3.1-1.6,28.287,28.287,0,0,0-.012-2.906c-.017-.349-.042-.7-.076-1.064-.7-7.711-5.122-16.992-18.314-19.82-10.279-2.2-17.193,2.506-21.05,5.065-.474.314-.882.6-1.223.857-.815.6-1.247,1-1.247,1a10.984,10.984,0,0,0-1.127-.636,16.959,16.959,0,0,0-1.977-.842,16,16,0,0,0-14.117,1.478,12.86,12.86,0,0,0-5.963,9.791,20.586,20.586,0,0,0-.094,3.985,21.229,21.229,0,0,0,.656,4.063s-2.092-1.141-6.428.874a23.588,23.588,0,0,0-3.673,2.171q-.5.353-1.033.758c-3.369,2.581-4.123,6.563-3.926,10.179a27.442,27.442,0,0,0,1.934,8.378l0,0,0,0c-.159.2-7.571,9.7-.616,20.024l-.653.13a14.647,14.647,0,0,1-3.543-24.534,14.649,14.649,0,0,1,10.6-22.958V152.3a19.53,19.53,0,0,1,28.954-17.105A26.458,26.458,0,0,1,287.149,152.3c0,.356-.007.712-.024,1.065a14.662,14.662,0,0,1,7.834,19.676A14.637,14.637,0,0,1,301.954,185.529Z" fill="#481715"/>
          </g>
          <g id="Group_10" data-name="Group 10">
            <path id="Path_38" data-name="Path 38" d="M353.671,364.827a24.574,24.574,0,0,1-2.219,5.977,21.968,21.968,0,0,1-4.323,5.73,19.9,19.9,0,0,1-3.278,2.512,18.718,18.718,0,0,1-4.084,1.862,18.142,18.142,0,0,1-4.542.826c-.382.022-.759.025-1.135.025l-.132,0h-.051l-.1-.005-.2-.012-.787-.036-3.143-.152-25.157-1.219V359.265l21.983-1.065-37.433-46.126a10.091,10.091,0,0,0-.741-.8c-3.028-8.222-3.534-17.166-3.141-24.626a86.727,86.727,0,0,1,2.464-16.657l.152-.135,61.645,74.7.972,1.177.272.436a24.118,24.118,0,0,1,2.714,6.188,24.9,24.9,0,0,1,.91,6.323A25.508,25.508,0,0,1,353.671,364.827Z" fill="#2e7fdb"/>
            <path id="Path_39" data-name="Path 39" d="M353.671,364.827a24.574,24.574,0,0,1-2.219,5.977,21.968,21.968,0,0,1-4.323,5.73,19.9,19.9,0,0,1-3.278,2.512,18.718,18.718,0,0,1-4.084,1.862,18.142,18.142,0,0,1-4.542.826c-.382.022-.759.025-1.135.025l-.132,0h-.051l-.1-.005-.2-.012-.787-.036-3.143-.152-25.157-1.219v-7.978c6.643.883,15.016,1.939,21.91,2.641,13.764,1.4,25.561-8.708,20.224-20.786-3.991-9.031-40.724-46.469-59.005-64.786-.618-.621-1.517-1.658-2.461-2.778a86.727,86.727,0,0,1,2.464-16.657l.152-.135,61.645,74.7.972,1.177.272.436a24.118,24.118,0,0,1,2.714,6.188,24.9,24.9,0,0,1,.91,6.323A25.508,25.508,0,0,1,353.671,364.827Z" fill="#2e63ca"/>
          </g>
          <g id="Group_11" data-name="Group 11">
            <path id="Path_40" data-name="Path 40" d="M143.818,364.914a24.533,24.533,0,0,0,2.219,5.977,21.951,21.951,0,0,0,4.323,5.73,19.9,19.9,0,0,0,3.278,2.512,18.718,18.718,0,0,0,4.084,1.862,18.142,18.142,0,0,0,4.542.826c.382.022.758.025,1.135.025l.132,0h.05l.1,0,.2-.012.787-.036,3.143-.152,25.157-1.219V359.352l-21.983-1.065,37.432-46.126a10.558,10.558,0,0,1,.742-.8c3.028-8.222,3.534-17.166,3.14-24.626a86.7,86.7,0,0,0-2.463-16.657l-.152-.135-61.645,74.7-.972,1.177-.273.435a24.15,24.15,0,0,0-2.713,6.188,24.9,24.9,0,0,0-.91,6.323A25.509,25.509,0,0,0,143.818,364.914Z" fill="#2e7fdb"/>
            <path id="Path_41" data-name="Path 41" d="M143.818,364.914a24.533,24.533,0,0,0,2.219,5.977,21.951,21.951,0,0,0,4.323,5.73,19.9,19.9,0,0,0,3.278,2.512,18.718,18.718,0,0,0,4.084,1.862,18.142,18.142,0,0,0,4.542.826c.382.022.758.025,1.135.025l.132,0h.05l.1,0,.2-.012.787-.036,3.143-.152,25.157-1.219v-7.977c-6.643.882-15.017,1.938-21.91,2.64-13.764,1.4-25.561-8.708-20.224-20.786,3.991-9.031,40.724-46.469,59.005-64.786.618-.621,1.517-1.657,2.46-2.778a86.7,86.7,0,0,0-2.463-16.657l-.152-.135-61.645,74.7-.972,1.177-.273.435a24.15,24.15,0,0,0-2.713,6.188,24.9,24.9,0,0,0-.91,6.323A25.509,25.509,0,0,0,143.818,364.914Z" fill="#2e63ca"/>
          </g>
          <path id="Path_42" data-name="Path 42" d="M261.65,237.59a18.176,18.176,0,0,1-26.36,0c.53-.18,1.05-.34,1.58-.5h.01a18.61,18.61,0,0,0,11.24,4.47,16.333,16.333,0,0,0,11.64-4.47C260.39,237.24,261.02,237.41,261.65,237.59Z" fill="#d9385e"/>
        </g>
      </g>
      <g id="Group_18" data-name="Group 18">
        <g id="Group_14" data-name="Group 14">
          <path id="Path_43" data-name="Path 43" d="M135.545,260.841a3.439,3.439,0,0,1-4.755,1.012l-5.257-3.413-5.924-3.845L94.551,275.052l15.993,87.335.992,5.416,1.157,6.31a3.439,3.439,0,0,1-2.762,4,3.583,3.583,0,0,1-.624.057,3.437,3.437,0,0,1-3.376-2.819l-1.382-7.55-.992-5.416L87.424,274.293a3.435,3.435,0,0,1,1.208-3.282l28.573-23.327a3.432,3.432,0,0,1,4.044-.219l9.02,5.853,4.263,2.767A3.438,3.438,0,0,1,135.545,260.841Z" fill="#fff"/>
          <path id="Path_44" data-name="Path 44" d="M135.545,260.841a3.439,3.439,0,0,1-4.755,1.012l-5.257-3.413c.472-2.693,3.086-4.338,4.736-5.122l4.263,2.767A3.438,3.438,0,0,1,135.545,260.841Z" fill="#efefef"/>
        </g>
        <g id="Group_17" data-name="Group 17">
          <g id="Group_16" data-name="Group 16">
            <path id="Path_45" data-name="Path 45" d="M162.642,271.57l.007,0a11.654,11.654,0,0,1,2.151,1.586,11.419,11.419,0,1,1-15.581,16.7q-.333-.306-.633-.642a11.42,11.42,0,0,1,14.056-17.644Z" fill="#fff"/>
            <path id="Path_46" data-name="Path 46" d="M162.642,271.57l.007,0a11.654,11.654,0,0,1,2.151,1.586,11.481,11.481,0,0,1,1.937,2.361l0,.006-15.06,16.081a11.462,11.462,0,0,1-2.455-1.751q-.333-.306-.633-.642C151.934,283.709,158,274.464,162.642,271.57Z" fill="#efefef"/>
            <g id="Group_15" data-name="Group 15">
              <path id="Path_47" data-name="Path 47" d="M131.019,257.247c2.573-2.756,6.073-3.671,7.817-2.043s1.072,5.182-1.5,7.939-6.073,3.671-7.817,2.043S128.446,260,131.019,257.247Z" fill="#04424c"/>
              <path id="Path_48" data-name="Path 48" d="M131.019,257.247c2.573-2.756,6.073-3.671,7.817-2.043s1.072,5.182-1.5,7.939-6.073,3.671-7.817,2.043S128.446,260,131.019,257.247Z" opacity="0.25"/>
              <path id="Path_49" data-name="Path 49" d="M173.764,257.413a4.371,4.371,0,0,1,.215,6.179l-31.8,34.06,0,.007-.028.032c-.019.014-.036.036-.056.05l-.168.186-1.624,1.739a4.37,4.37,0,0,1-6.185.212,27.012,27.012,0,0,1-1.311-38.218l2.737-2.936a27.273,27.273,0,0,1,5.416-4.472s.049-.032.141-.082A27.048,27.048,0,0,1,173.764,257.413Z" fill="#04424c"/>
              <path id="Path_50" data-name="Path 50" d="M173.764,257.413a4.371,4.371,0,0,1,.215,6.179l-31.8,34.06c.863-1.131,21.553-28.466,15.514-39.009-5.758-10.048-15.333-5.171-16.594-4.473A27.048,27.048,0,0,1,173.764,257.413Z" fill="#04424c"/>
            </g>
          </g>
          <path id="Path_51" data-name="Path 51" d="M173.764,257.413a4.371,4.371,0,0,1,.215,6.179l-31.8,34.06c.863-1.131,21.553-28.466,15.514-39.009-5.758-10.048-15.333-5.171-16.594-4.473A27.048,27.048,0,0,1,173.764,257.413Z" opacity="0.25"/>
        </g>
        <path id="Path_52" data-name="Path 52" d="M130.576,375.351V382.9H86.385v-7.547a7.549,7.549,0,0,1,7.547-7.548h29.1A7.547,7.547,0,0,1,130.576,375.351Z" fill="#04424c"/>
        <rect id="Rectangle_6" data-name="Rectangle 6" width="44.191" height="6.516" transform="translate(86.385 376.382)" opacity="0.25"/>
        <path id="Path_53" data-name="Path 53" d="M142.183,297.652l26.242,65.84,66.216-64.571-60.663-35.329Z" fill="url(#linear-gradient-2)"/>
        <path id="Path_54" data-name="Path 54" d="M111.536,367.8h-6.987l-.992-5.416h6.987Z" fill="#efefef"/>
      </g>
      <g id="Group_21" data-name="Group 21">
        <g id="Group_19" data-name="Group 19">
          <path id="Path_55" data-name="Path 55" d="M321.29,337.16h-145.6L162.17,229.976H334.813Z" fill="url(#linear-gradient-3)"/>
          <path id="Path_56" data-name="Path 56" d="M325.008,310.346,317.021,367.8l-.821,5.9a7.96,7.96,0,0,1-7.959,7.959H188.732a7.96,7.96,0,0,1-7.959-7.959l-.821-5.9-7.987-57.458a4.69,4.69,0,0,1,4.644-5.335H320.364A4.69,4.69,0,0,1,325.008,310.346Z" fill="#04424c"/>
          <path id="Path_57" data-name="Path 57" d="M317.021,367.8l-.821,5.9a7.96,7.96,0,0,1-7.959,7.959H188.732a7.96,7.96,0,0,1-7.959-7.959l-.821-5.9Z" opacity="0.25"/>
        </g>
        <circle id="Ellipse_2" data-name="Ellipse 2" cx="14.619" cy="14.619" r="14.619" transform="translate(234.014 330.828)" fill="#fff" opacity="0.2"/>
        <g id="Group_20" data-name="Group 20">
          <path id="Path_58" data-name="Path 58" d="M248.621,343.973a1.961,1.961,0,1,0,1.984,1.936A1.96,1.96,0,0,0,248.621,343.973Z" fill="#fff"/>
          <path id="Path_59" data-name="Path 59" d="M258.721,348.684a1.328,1.328,0,0,0-1.344-1.311c-.021,0-.041.006-.063.007a9.137,9.137,0,0,0-.933-1.12c-.118-.123-.248-.244-.376-.366.125-.125.252-.25.367-.375,1.484-1.613,2.005-3.09,1.468-4.16s-2.034-1.534-4.213-1.306a14.162,14.162,0,0,0-1.54.253,14.12,14.12,0,0,0-.483-1.484c-.8-2.04-1.9-3.155-3.1-3.14a2.082,2.082,0,0,0-1.187.413,1.322,1.322,0,0,0-1.559,2.127c-.1.213-.186.437-.273.675a14.181,14.181,0,0,0-.447,1.495,14.378,14.378,0,0,0-1.545-.216c-2.184-.174-3.668.327-4.179,1.409s.045,2.547,1.568,4.123c.118.122.248.244.376.366l-.087.088a1.324,1.324,0,0,0-1.529,2.012,2.654,2.654,0,0,0-.218,2.434c.457.911,1.61,1.383,3.288,1.362.292,0,.6-.022.924-.055a14.621,14.621,0,0,0,1.54-.253,14.332,14.332,0,0,0,.483,1.483c.8,2.04,1.9,3.155,3.1,3.141s2.269-1.157,3.019-3.216a14.237,14.237,0,0,0,.447-1.494,14.351,14.351,0,0,0,1.545.215q.486.039.926.033c1.677-.02,2.818-.52,3.254-1.442a1.932,1.932,0,0,0,.164-.571A1.321,1.321,0,0,0,258.721,348.684Zm-5-7.727c.3-.032.592-.049.861-.052,1.282-.016,2.156.286,2.445.862.351.7-.132,1.841-1.324,3.136-.117.128-.246.256-.375.383a20.48,20.48,0,0,0-2.674-1.885,21.942,21.942,0,0,0-.351-2.211A13.227,13.227,0,0,1,253.721,340.957ZM250.1,348.9c-.475.239-.951.455-1.424.658-.478-.191-.959-.4-1.44-.623-.626-.3-1.218-.605-1.771-.922-.058-.635-.094-1.3-.1-1.994s.01-1.36.053-2c.546-.33,1.129-.654,1.749-.965.475-.238.95-.455,1.423-.657.479.191.959.395,1.44.622.615.291,1.206.6,1.772.924.058.635.093,1.3.1,1.993s-.01,1.358-.053,1.994C251.292,348.275,250.708,348.6,250.1,348.9Zm1.646.144c-.058.506-.132.989-.219,1.445-.533-.131-1.081-.293-1.637-.48.206-.1.412-.193.618-.3C250.934,349.5,251.344,349.279,251.747,349.049Zm-4.273.994c-.552.2-1.1.376-1.625.52-.1-.454-.183-.935-.254-1.439.408.22.824.435,1.254.638C247.057,349.861,247.266,349.951,247.474,350.043Zm-3.019-4.008c.006.475.028.941.058,1.4a18.96,18.96,0,0,1-1.906-1.382,18.991,18.991,0,0,1,1.872-1.427C244.46,345.093,244.449,345.56,244.455,346.035Zm1.064-3.116c.059-.506.132-.989.219-1.445.533.131,1.081.292,1.637.48-.206.1-.412.193-.617.3C246.333,342.463,245.922,342.689,245.519,342.919Zm4.273-.995c.552-.2,1.1-.375,1.625-.52.1.454.184.935.255,1.44-.409-.221-.825-.436-1.255-.639C250.209,342.107,250,342.016,249.792,341.924Zm3.019,4.009c-.006-.475-.028-.942-.058-1.4a19,19,0,0,1,1.908,1.381,18.794,18.794,0,0,1-1.874,1.427C252.806,346.875,252.817,346.407,252.811,345.933Zm-6.193-7.386.022,0a1.328,1.328,0,0,0,1.311-1.344,1.3,1.3,0,0,0-.07-.392,1.169,1.169,0,0,1,.637-.222c.964-.012,2.013,1.472,2.684,3.93a22.626,22.626,0,0,0-2.625.9,22.332,22.332,0,0,0-2.646-.834A11.857,11.857,0,0,1,246.618,338.547Zm-6.479,3.426c.275-.583,1.14-.906,2.423-.922.269,0,.557.007.862.032a13.3,13.3,0,0,1,1.424.2,22.111,22.111,0,0,0-.3,2.219,20.518,20.518,0,0,0-2.625,1.948C240.441,344.039,239.778,342.736,240.139,341.973Zm3.406,9.037c-1.751.183-2.956-.112-3.306-.81a1.751,1.751,0,0,1,.173-1.508,1.346,1.346,0,0,0,.331.043,1.328,1.328,0,0,0,1.311-1.344,1.3,1.3,0,0,0-.18-.64l.066-.068a20.42,20.42,0,0,0,2.672,1.883,21.677,21.677,0,0,0,.352,2.212A13.532,13.532,0,0,1,243.545,351.01Zm5.2,4.367c-.963.012-2.013-1.473-2.684-3.931a22.257,22.257,0,0,0,2.625-.9,22.342,22.342,0,0,0,2.646.835C250.724,353.856,249.711,355.365,248.748,355.377Zm5.094-4.492a13.568,13.568,0,0,1-1.424-.2,22.189,22.189,0,0,0,.3-2.219,20.576,20.576,0,0,0,2.627-1.95c.132.124.264.249.385.373a8.987,8.987,0,0,1,.737.864,1.324,1.324,0,0,0,.66,2.243C256.789,350.7,255.593,351.024,253.842,350.885Z" fill="#fff"/>
        </g>
      </g>
      <g id="Group_26" data-name="Group 26">
        <g id="Group_25" data-name="Group 25">
          <g id="Group_22" data-name="Group 22">
            <rect id="Rectangle_7" data-name="Rectangle 7" width="31.076" height="38.657" transform="translate(364.868 345.627)" fill="#fff"/>
            <path id="Path_60" data-name="Path 60" d="M371.041,345.627h0a42.375,42.375,0,0,0,23.123,37.749l1.78.908H364.868V345.627Z" fill="#efefef"/>
          </g>
          <g id="Group_23" data-name="Group 23">
            <path id="Path_61" data-name="Path 61" d="M398.212,353.93a12.8,12.8,0,1,0,10.533,12.6A12.861,12.861,0,0,0,398.212,353.93Zm0,19.384a7.078,7.078,0,0,1-2.269.371,7.154,7.154,0,0,1,0-14.309,7.078,7.078,0,0,1,2.269.371,7.152,7.152,0,0,1,0,13.567Z" fill="#fff"/>
          </g>
          <g id="Group_24" data-name="Group 24">
            <path id="Path_62" data-name="Path 62" d="M376.008,344.279s-11.957-7.188-4.9-16.647,8.037-16.124,3.724-20.632c0,0,9.385,3.92,9.593,13.917S372.48,333.14,376.008,344.279Z" fill="url(#linear-gradient-4)"/>
            <path id="Path_63" data-name="Path 63" d="M386.72,344.279s-6.866-4.128-2.814-9.56,4.616-9.259,2.139-11.848c0,0,5.389,2.251,5.509,7.992S384.694,337.882,386.72,344.279Z" fill="url(#linear-gradient-4)"/>
          </g>
          <path id="Path_64" data-name="Path 64" d="M398.212,353.93v5.817a7.078,7.078,0,0,0-2.269-.371v-5.647A12.861,12.861,0,0,1,398.212,353.93Z" fill="#efefef"/>
        </g>
        <path id="Path_65" data-name="Path 65" d="M398.212,373.314v5.816a12.766,12.766,0,0,1-2.269.2v-5.647A7.078,7.078,0,0,0,398.212,373.314Z" fill="#efefef"/>
      </g>
    </g>
  </g>
</svg>
