<svg xmlns="http://www.w3.org/2000/svg" xmlns:xlink="http://www.w3.org/1999/xlink" width="237.39" height="252.636" viewBox="0 0 237.39 252.636">
  <defs>
    <linearGradient id="linear-gradient" x1="0.5" y1="1" x2="0.5" gradientUnits="objectBoundingBox">
      <stop offset="0" stop-color="#ffb595"/>
      <stop offset="0.984" stop-color="#ffc2a9"/>
    </linearGradient>
    <linearGradient id="linear-gradient-2" x1="0.5" y1="1" x2="0.5" gradientUnits="objectBoundingBox">
      <stop offset="0.016" stop-color="#ffa67f"/>
      <stop offset="1" stop-color="#ff8b7c"/>
    </linearGradient>
    <linearGradient id="linear-gradient-3" x1="0.5" y1="1" x2="0.5" gradientUnits="objectBoundingBox">
      <stop offset="0.016" stop-color="#fff"/>
      <stop offset="0.992" stop-color="#f29dc8"/>
    </linearGradient>
    <linearGradient id="linear-gradient-8" x1="0.566" y1="1.028" x2="0.433" y2="0.026" gradientUnits="objectBoundingBox">
      <stop offset="0" stop-color="#3e2987"/>
      <stop offset="0.568" stop-color="#2b2f90"/>
      <stop offset="1" stop-color="#243294"/>
    </linearGradient>
    <linearGradient id="linear-gradient-9" x1="0.5" y1="1" x2="0.5" gradientUnits="objectBoundingBox">
      <stop offset="0" stop-color="#ff6686"/>
      <stop offset="1" stop-color="#ff7c89"/>
    </linearGradient>
    <linearGradient id="linear-gradient-10" x1="0.5" y1="1" x2="0.5" gradientUnits="objectBoundingBox">
      <stop offset="0" stop-color="#2b2583"/>
      <stop offset="1" stop-color="#482c97"/>
    </linearGradient>
    <linearGradient id="linear-gradient-11" x1="0.5" y1="1" x2="0.5" gradientUnits="objectBoundingBox">
      <stop offset="0" stop-color="#26258a"/>
      <stop offset="1" stop-color="#3c2c95"/>
    </linearGradient>
    <linearGradient id="linear-gradient-12" x1="0.5" y1="1" x2="0.5" gradientUnits="objectBoundingBox">
      <stop offset="0.016" stop-color="#ffc2a0"/>
      <stop offset="1" stop-color="#ffa195"/>
    </linearGradient>
    <linearGradient id="linear-gradient-15" y1="0.5" x2="1" y2="0.5" gradientUnits="objectBoundingBox">
      <stop offset="0" stop-color="#8453b8"/>
      <stop offset="0.231" stop-color="#7654b9"/>
      <stop offset="0.698" stop-color="#6057bc"/>
      <stop offset="1" stop-color="#5958bd"/>
    </linearGradient>
    <linearGradient id="linear-gradient-17" y1="0.5" x2="1" y2="0.5" gradientUnits="objectBoundingBox">
      <stop offset="0.016" stop-color="#fff"/>
      <stop offset="0.992" stop-color="#ea9dc8"/>
    </linearGradient>
    <linearGradient id="linear-gradient-20" x1="0" y1="0.5" x2="1" y2="0.5" xlink:href="#linear-gradient-3"/>
    <linearGradient id="linear-gradient-21" x1="0.5" y1="1" x2="0.5" y2="0" xlink:href="#linear-gradient-3"/>
    <linearGradient id="linear-gradient-22" x1="0.5" y1="1" x2="0.5" gradientUnits="objectBoundingBox">
      <stop offset="0.016" stop-color="#e0b3d1"/>
      <stop offset="0.992" stop-color="#c2798b"/>
    </linearGradient>
    <linearGradient id="linear-gradient-23" x1="0.5" y1="1" x2="0.5" y2="0" xlink:href="#linear-gradient-22"/>
    <linearGradient id="linear-gradient-24" x1="0.5" y1="1" x2="0.5" gradientUnits="objectBoundingBox">
      <stop offset="0" stop-color="#b877b8"/>
      <stop offset="0.234" stop-color="#9a6db9"/>
      <stop offset="0.56" stop-color="#7661bb"/>
      <stop offset="0.828" stop-color="#605abc"/>
      <stop offset="1" stop-color="#5958bd"/>
    </linearGradient>
    <linearGradient id="linear-gradient-25" x1="0.5" y1="1" x2="0.5" y2="0" xlink:href="#linear-gradient-24"/>
    <linearGradient id="linear-gradient-26" y1="0.5" x2="1" y2="0.5" gradientUnits="objectBoundingBox">
      <stop offset="0.016" stop-color="#fff"/>
      <stop offset="0.992" stop-color="#c2798b"/>
    </linearGradient>
    <linearGradient id="linear-gradient-27" y1="0.5" x2="1" y2="0.5" gradientUnits="objectBoundingBox">
      <stop offset="0.008" stop-color="#c2798b"/>
      <stop offset="0.984" stop-color="#fff"/>
    </linearGradient>
    <linearGradient id="linear-gradient-29" x1="0.519" y1="1.171" x2="0.439" y2="0.032" xlink:href="#linear-gradient-8"/>
    <linearGradient id="linear-gradient-30" x1="0.798" y1="1.038" x2="0.635" y2="0.107" xlink:href="#linear-gradient-8"/>
    <linearGradient id="linear-gradient-31" y1="0.5" x2="1" y2="0.5" gradientUnits="objectBoundingBox">
      <stop offset="0.016" stop-color="#fff"/>
      <stop offset="0.992" stop-color="#d172a6"/>
    </linearGradient>
    <linearGradient id="linear-gradient-33" x1="0.486" y1="0.973" x2="0.486" y2="-0.042" xlink:href="#linear-gradient-11"/>
    <linearGradient id="linear-gradient-34" x1="0.5" y1="1" x2="0.5" y2="0" xlink:href="#linear-gradient-11"/>
    <linearGradient id="linear-gradient-36" x1="0.55" y1="1.152" x2="0.471" y2="-0.087" xlink:href="#linear-gradient-8"/>
    <linearGradient id="linear-gradient-38" x1="0.5" y1="1" x2="0.5" gradientUnits="objectBoundingBox">
      <stop offset="0" stop-color="#38328a"/>
      <stop offset="1" stop-color="#5c43a2"/>
    </linearGradient>
    <linearGradient id="linear-gradient-40" x1="0.5" y1="1" x2="0.5" gradientUnits="objectBoundingBox">
      <stop offset="0.016" stop-color="#fff"/>
      <stop offset="0.992" stop-color="#ea8cc1"/>
    </linearGradient>
    <linearGradient id="linear-gradient-42" x1="0.5" y1="1" x2="0.5" gradientUnits="objectBoundingBox">
      <stop offset="0.008" stop-color="#ea9dc8"/>
      <stop offset="0.984" stop-color="#ffdbd6"/>
    </linearGradient>
    <linearGradient id="linear-gradient-43" x1="0.5" y1="1" x2="0.5" gradientUnits="objectBoundingBox">
      <stop offset="0" stop-color="#ffb595"/>
      <stop offset="0.984" stop-color="#ffc290"/>
    </linearGradient>
    <linearGradient id="linear-gradient-46" x1="0.5" y1="1" x2="0.5" y2="0" xlink:href="#linear-gradient-17"/>
    <linearGradient id="linear-gradient-48" x1="0.5" y1="1" x2="0.5" gradientUnits="objectBoundingBox">
      <stop offset="0.008" stop-color="#ea9dc8"/>
      <stop offset="0.984" stop-color="#fff"/>
    </linearGradient>
    <linearGradient id="linear-gradient-50" x1="0.5" y1="1" x2="0.5" y2="0" xlink:href="#linear-gradient-26"/>
    <linearGradient id="linear-gradient-54" x1="0" y1="0.5" x2="1" y2="0.5" xlink:href="#linear-gradient-27"/>
    <linearGradient id="linear-gradient-57" x1="0" y1="0.5" x2="1" y2="0.5" xlink:href="#linear-gradient-27"/>
    <linearGradient id="linear-gradient-58" x1="0.5" y1="1" x2="0.5" y2="0" xlink:href="#linear-gradient-27"/>
    <linearGradient id="linear-gradient-60" x1="0.5" y1="1" x2="0.5" gradientUnits="objectBoundingBox">
      <stop offset="0" stop-color="#2b2583"/>
      <stop offset="1" stop-color="#231868"/>
    </linearGradient>
    <linearGradient id="linear-gradient-62" x1="0.5" y1="1" x2="0.5" gradientUnits="objectBoundingBox">
      <stop offset="0" stop-color="#c50b79"/>
      <stop offset="1" stop-color="#e51160"/>
    </linearGradient>
    <linearGradient id="linear-gradient-64" x1="0.5" y1="1" x2="0.5" gradientUnits="objectBoundingBox">
      <stop offset="0" stop-color="#c9b6e9"/>
      <stop offset="1" stop-color="#bbabd1"/>
    </linearGradient>
    <linearGradient id="linear-gradient-65" x1="0.5" y1="1" x2="0.5" gradientUnits="objectBoundingBox">
      <stop offset="0" stop-color="#d8caef"/>
      <stop offset="1" stop-color="#eadef4"/>
    </linearGradient>
    <linearGradient id="linear-gradient-67" x1="0.5" y1="1" x2="0.5" y2="0" xlink:href="#linear-gradient-17"/>
    <linearGradient id="linear-gradient-71" y1="0.5" x2="1" y2="0.5" gradientUnits="objectBoundingBox">
      <stop offset="0.008" stop-color="#f29dc8"/>
      <stop offset="0.984" stop-color="#fff"/>
    </linearGradient>
    <linearGradient id="linear-gradient-72" x1="0" y1="0.5" x2="1" y2="0.5" xlink:href="#linear-gradient-71"/>
    <linearGradient id="linear-gradient-73" x1="0" y1="0.5" x2="1" y2="0.5" xlink:href="#linear-gradient-3"/>
    <linearGradient id="linear-gradient-74" x1="0" y1="0.5" x2="1" y2="0.5" xlink:href="#linear-gradient-3"/>
    <linearGradient id="linear-gradient-76" x1="0.5" y1="1" x2="0.5" y2="0" xlink:href="#linear-gradient-42"/>
  </defs>
  <g id="Group_2" data-name="Group 2" transform="translate(-28.51 -139.116)">
    <path id="Path_1" data-name="Path 1" d="M42.214,312.93l2.4,28.422s-7.39,6.063-13.074,6.063C31.54,347.415,29.772,335.667,42.214,312.93Z" fill="#4b81ee" style="mix-blend-mode: multiply;isolation: isolate"/>
    <path id="Path_2" data-name="Path 2" d="M265.9,391.389a104.8,104.8,0,0,1-27.6-1.494A100.514,100.514,0,0,1,214,381.33L212.1,369.386s13.922-15.866,30.329-8.593S265.9,391.389,265.9,391.389Z" fill="#4b81ee"/>
    <path id="Path_3" data-name="Path 3" d="M134.8,156.425c-17.324,2.747-25.768,16.963-26.147,24.65s5.558,36.929,7.579,44.792,16.8,16.077,21.979,17.339a22.278,22.278,0,0,0,14.652-1.9c4.295-2.013,14.527-10.769,16.674-18.517s2.779-43.748,0-52.717S149.014,154.172,134.8,156.425Z" fill="url(#linear-gradient)"/>
    <path id="Path_4" data-name="Path 4" d="M129,238.926l.88,33.452s3.815,22.649,15.665,23.4c14.84.947,16.545-25.316,16.545-25.316l-2.329-34.132s-8.612,7.391-16.468,7.383S129,238.926,129,238.926Z" fill="url(#linear-gradient-2)"/>
    <path id="Path_5" data-name="Path 5" d="M111.034,181.075s3.457-15.091,23.731-16.265,28.179,5.57,30.859,10.384,6.054,13.062,6.054,13.062l-.938-23.009-12.77-5.969s-26.783-2.45-36.507,2.319S110.776,172.985,111.034,181.075Z" fill="url(#linear-gradient-3)" style="mix-blend-mode: multiply;isolation: isolate"/>
    <path id="Path_6" data-name="Path 6" d="M171.39,196.079a9.509,9.509,0,0,1,6.8-2.77s2.842,2.337,1.042,8.306c-1.586,5.258-5.59,12.126-6.348,13.831a3.765,3.765,0,0,1-2.482,2.061S171.448,203.238,171.39,196.079Z" fill="url(#linear-gradient-2)"/>
    <path id="Path_7" data-name="Path 7" d="M111.04,200.586a5.277,5.277,0,0,0-6.363,0,50.213,50.213,0,0,0,3.182,10.692c2.5,6.063,3.826,10.222,7.332,10.179Z" fill="url(#linear-gradient-2)"/>
    <path id="Path_8" data-name="Path 8" d="M171.4,202.752s4.126-4.352,6.277-4.785.606,5.714-.711,8.911-1.469,3.5-1.469,3.5,2.653-7.769,1.848-9.521-2.169-.995-2.222-.284,1.417,4.5-.62,8.242-2.274,4.689-2.842,2.747,1.184-5.116,1.231-6.963S171.4,202.752,171.4,202.752Z" fill="url(#linear-gradient-3)" style="mix-blend-mode: multiply;isolation: isolate"/>
    <path id="Path_9" data-name="Path 9" d="M112.121,206.018s-3.458-2.635-4.784-1.94.308,7.168,3.277,12.41c0,0-3.066-7.2-1.975-8.905s3.516,1.259,2.385,1.389c-3.439.4-1.628,5.306,1.1,7.264s-.434-1.516-.939-4.611,1.326-2.968,1.326-2.968Z" fill="url(#linear-gradient-3)" style="mix-blend-mode: multiply;isolation: isolate"/>
    <path id="Path_10" data-name="Path 10" d="M123.355,158.247s6.457-16.445,21.047-19.131c0,0-5.381,1.727-11.342,7.551-2.042,2-6.594,9.329-6.594,9.329s15.253-16.244,25.39-15.392,10.421,15.632,15.063,18.1a12.846,12.846,0,0,1,5.9,7.579s4.042,4.926,3.79,10.1S171.4,199.5,171.4,199.5s1.3-16.673-3.244-23.368c0,0-1.516-9.189-8.053-12.884a109.776,109.776,0,0,1-22.453-.649c-13.642-1.611-18.094,1.6-18.094,1.6s-8.432,6.726-8.337,15.063c0,0-3.181,6.207.128,22.844,0,0-7.612-17-7.486-23.95s7.263-13.768,7.263-13.768-5.908,3.177-9.284,7.39c0,0-4.687-8.682,17.337-10.8A6.75,6.75,0,0,0,123.355,158.247Z" fill="url(#linear-gradient-8)"/>
    <path id="Path_11" data-name="Path 11" d="M129.565,260.511s-10.963,12.44-19.631,17.935a117.756,117.756,0,0,1-15.107,8.242s-1.961,68.5,7.134,104.306h90.253s7.579-85.478,2.842-107.634c0,0-23.8-10.334-33.689-23.445l.436,11.9s-3.916,18.87-16.261,19.8c-11.4.858-15.739-22.063-15.739-22.063Z" fill="url(#linear-gradient-9)"/>
    <path id="Path_12" data-name="Path 12" d="M129.456,256.381l-4.316-.956a83.115,83.115,0,0,1-16.5,19.327c-7.62,6.32-14.194,4.831-26.036,11.936,0,0,12.993,34.712,12.046,65.527,0,0,2.07,20.021,5.291,38.779l96.673-.569s6.274-24.019,6.653-46.973c0,0,5.053-43.62,15.474-60.092-13.832-6.619-24.063-6.24-35.81-11.735s-19.706-19.2-19.706-19.2l-2.368,1.1.511,6.385s8.023,9.067,11.331,17.647c4.042,10.484-7.579,113.432-7.579,113.432l-36.758-.569s-9.663-102.316-8.337-111.979,9.541-17.935,9.541-17.935Z" fill="url(#linear-gradient-10)"/>
    <path id="Path_13" data-name="Path 13" d="M82.6,286.688V298.4L64.508,328.278s-4.263-12.6-4.452-14.969,0-6.537,0-6.537L57.214,304.5l.473,4.263S59.2,334.341,31.54,345.9c0,0,1.958-18.063,10.674-32.969l-.379-1.894s-9.727,14.021-12.569,37.7l8.527,3.979S46.319,377.3,57.5,391.267l12.47.122s18.7-16.4,27.13-41.767C97.1,349.622,101.266,318.615,82.6,286.688Z" fill="url(#linear-gradient-11)"/>
    <path id="Path_14" data-name="Path 14" d="M79.73,228.928s-9.47,14.4-11.24,19.71-.38,15.16-1.9,17.43c0,0-9.72,8.46-10.86,11.12s0,16.42,0,16.42c-3.85,7.29-13.01,9.56-13.01,9.56s-.85-23.58-1.14-24.15-5.7-4.02-5.7-4.02a74.248,74.248,0,0,1-3.34-10.07c-1.05-4.02-1.79-7.9-2.29-11.09v-.01c-.73-4.56-.98-7.69-.98-7.69l-.76-9.38c1.32-6.06,4.86-5.11,4.86-5.11a60.007,60.007,0,0,0,2.02,10.74l.57-.38a93.22,93.22,0,0,1-1.39-11.69c1.77-5.11,6.13-3.72,6.13-3.72,1.07,6.19,2.46,12.44,2.46,12.44-1.2-8.02-.38-20.53-.38-20.53,1.64,3.73,6.38,4.3,6.38,4.3-.95,4.35,0,13.53,0,13.53l1.01-.59c.35-4.43,1.02-9.18,1.8-13.72a167.52,167.52,0,0,1,5.05-21.7c1.27-3.29,4.55-.67,4.55-.67,1.34,6.26,2,10.93,1.3,14.26h0c-1.08,5.11-4.244,7.12-4.244,7.12s-2.27,11.93-2.08,13.92,1.23,15.16,1.23,15.16c5.21-2.84,6.63-6.82,6.63-6.82.1-8.53,3.79-13.17,8.53-15.16S79.73,228.928,79.73,228.928Z" fill="url(#linear-gradient-12)"/>
    <path id="Path_15" data-name="Path 15" d="M115.939,199.864l-.367,1.23s7.553,1.928,14.1-2.4Z" fill="#feb1c8" style="mix-blend-mode: multiply;isolation: isolate"/>
    <path id="Path_16" data-name="Path 16" d="M42.491,297.125s-3.814,4.121-4.319,7.4c0,0,2.463,6.127,4.042,8.4l1.042,26.062s15-10.714,14.431-30.23c0,0-1.01-13.168.016-16.863l-2.162-.931.189,2.636s-6.379,8.053-13.011,9.569Z" fill="url(#linear-gradient-9)"/>
    <path id="Path_17" data-name="Path 17" d="M218.74,283.36v10.434s33.7,52.863,44.354,85.7l2.806,11.89s-19.686-28.816-35.034-27.3S214,374.7,214,374.7l1.137,4.737L214,381.33l-3.221-14.4H207.94v-2.273L202.7,354.209S200.361,306.21,218.74,283.36Z" fill="url(#linear-gradient-11)"/>
    <path id="Path_18" data-name="Path 18" d="M143.8,178.415s.711-5.211,2.842-6.443Z" fill="url(#linear-gradient-15)"/>
    <path id="Path_19" data-name="Path 19" d="M148.4,196.388a25.1,25.1,0,0,0,14.587-1.7l-1-1.179S159.014,196.514,148.4,196.388Z" fill="#feb1c8" style="mix-blend-mode: multiply;isolation: isolate"/>
    <path id="Path_20" data-name="Path 20" d="M113.215,185.6c-5.181,4.072.493,19.641.493,19.641s12.569,2.689,19.485-5.381v-9.91s1.967-3.144,9.162-2.909c0,0,2.571,9.562,4.4,13.823,0,0,12.934,3.291,19.755-5.228,0,0,.564-9.455-2.589-14.015s-20.116-3.21-20.116-3.21-3.965,3.21-14.4,2.452C129.4,180.867,116.592,182.951,113.215,185.6Z" fill="url(#linear-gradient-3)" style="mix-blend-mode: multiply;isolation: isolate"/>
    <path id="Path_21" data-name="Path 21" d="M129.674,197.322s-1.7-7.076-7.051-7.36-6.31,7.36-6.31,7.36Z" fill="url(#linear-gradient-17)" style="mix-blend-mode: multiply;isolation: isolate"/>
    <path id="Path_22" data-name="Path 22" d="M147.451,194.691s-.143-8.234,5.352-9.655,7.843,5.112,7.843,5.112Z" fill="url(#linear-gradient-17)" style="mix-blend-mode: multiply;isolation: isolate"/>
    <path id="Path_23" data-name="Path 23" d="M161.61,194.7a8.984,8.984,0,0,1-3.34,1.06,48.822,48.822,0,0,1-7.29.74c-1.9.04-3.33-.1-3.48-.47-.57-1.42,1.13-7.01,6.41-8.06S163.32,193.278,161.61,194.7Z" fill="#ffe4ec"/>
    <path id="Path_24" data-name="Path 24" d="M129.91,198.408c-.07.29-.73.64-1.74.98a33.271,33.271,0,0,1-8.21,1.48,12.438,12.438,0,0,1-2.98-.16c-2.68-.58-.74-6.43,4.19-7.69a5.985,5.985,0,0,1,1.91-.18.019.019,0,0,0,.03,0,7.88,7.88,0,0,1,4.21,1.71.12.12,0,0,1,.05.05C129.07,195.938,130.09,197.678,129.91,198.408Z" fill="#ffe4ec"/>
    <path id="Path_25" data-name="Path 25" d="M135.466,212.545s-3.789.249-4.926-1.173.853-2.073,3.979-4.494,6.347-1.663,9.284-.432,5.305,1.406,5.637,2.479-3.7,2.353-4.784,2.3-1.516-.378-2.605.285a7.887,7.887,0,0,1-4.5.805A3.449,3.449,0,0,0,135.466,212.545Z" fill="#feb1c8" style="mix-blend-mode: multiply;isolation: isolate"/>
    <path id="Path_26" data-name="Path 26" d="M142.051,211.515a2.052,2.052,0,0,1,1.942-1.132c1.326.137,2.76.415,2.76.415A7.2,7.2,0,0,1,142.051,211.515Z" fill="#d1a1c8" style="mix-blend-mode: multiply;isolation: isolate"/>
    <path id="Path_27" data-name="Path 27" d="M137.294,212.284a2.451,2.451,0,0,0-1.97-1.268c-1.373-.07-2.131,1.446-2.131,1.446a5.687,5.687,0,0,0,2.273.083A5.814,5.814,0,0,1,137.294,212.284Z" fill="#d1a1c8" style="mix-blend-mode: multiply;isolation: isolate"/>
    <path id="Path_28" data-name="Path 28" d="M144.4,203.164s5.212-.538,5.038,5.761A6.278,6.278,0,0,0,144.4,203.164Z" fill="url(#linear-gradient-17)" style="mix-blend-mode: multiply;isolation: isolate"/>
    <path id="Path_29" data-name="Path 29" d="M159.17,192.958a4.772,4.772,0,0,1-.9,2.8,48.822,48.822,0,0,1-7.29.74,4.863,4.863,0,1,1,8.19-3.54Z" fill="#7f6186"/>
    <path id="Path_30" data-name="Path 30" d="M128.48,197.688a4.794,4.794,0,0,1-.31,1.7,33.271,33.271,0,0,1-8.21,1.48,4.74,4.74,0,0,1-1.21-3.18,4.884,4.884,0,0,1,4.33-4.85.019.019,0,0,0,.03,0c.17-.01.33-.02.5-.02a4.811,4.811,0,0,1,3.71,1.73.12.12,0,0,1,.05.05A4.768,4.768,0,0,1,128.48,197.688Z" fill="#7f6186"/>
    <path id="Path_31" data-name="Path 31" d="M147.451,194.691s1.586-5.937,6.915-6.482a7.41,7.41,0,0,1,7.223,3.972s-1.333-4.872-5.881-5.124S148.289,190.768,147.451,194.691Z" fill="#6c2a51"/>
    <path id="Path_32" data-name="Path 32" d="M129.493,196.97s-3.358-4.661-8.179-3.549a7.186,7.186,0,0,0-5.551,5.47s.458-5.1,5.118-6.521C126,190.806,129.493,196.97,129.493,196.97Z" fill="#6c2a51"/>
    <path id="Path_33" data-name="Path 33" d="M128.48,220.995s3.292,1.327,12.26.463A21.134,21.134,0,0,0,154.7,213.9s-6.647,9.128-12.126,9.759-7.732-.927-10.485-1.675S128.48,220.995,128.48,220.995Z" fill="#bf7988" style="mix-blend-mode: multiply;isolation: isolate"/>
    <path id="Path_34" data-name="Path 34" d="M136.887,222.046a7.583,7.583,0,0,0,5.827,1.263,10.786,10.786,0,0,0,5.108-3.5A30.614,30.614,0,0,1,136.887,222.046Z" fill="#ffe4ec"/>
    <path id="Path_35" data-name="Path 35" d="M152.424,213.267A6.245,6.245,0,0,1,158.2,216.8S158.866,211.752,152.424,213.267Z" fill="url(#linear-gradient-20)" style="mix-blend-mode: multiply;isolation: isolate"/>
    <path id="Path_36" data-name="Path 36" d="M139.021,225.944a14.207,14.207,0,0,0,8.8-1.592s-1.251,4.547-4.188,4.831S139.021,225.944,139.021,225.944Z" fill="url(#linear-gradient-21)" style="mix-blend-mode: multiply;isolation: isolate"/>
    <path id="Path_37" data-name="Path 37" d="M156.853,192.818a2.548,2.548,0,1,1-2.548-2.548A2.547,2.547,0,0,1,156.853,192.818Z" fill="url(#linear-gradient-22)" style="mix-blend-mode: multiply;isolation: isolate"/>
    <path id="Path_38" data-name="Path 38" d="M126.163,197.322a2.548,2.548,0,1,1-2.548-2.547A2.548,2.548,0,0,1,126.163,197.322Z" fill="url(#linear-gradient-23)" style="mix-blend-mode: multiply;isolation: isolate"/>
    <path id="Path_39" data-name="Path 39" d="M156.4,192.293s2.278-1.08,3.742.663Z" fill="#fff"/>
    <path id="Path_40" data-name="Path 40" d="M125.187,196.8a4,4,0,0,1,3.743.269Z" fill="#fff"/>
    <path id="Path_41" data-name="Path 41" d="M115.572,223.128c3.167,7.359,9.094,13.918,17.621,16.539,5.159,1.586,17.684-.13,23.66-3.332a26.492,26.492,0,0,0,13.263-16.525s.7,6.246-10.358,16.525l.387,14.586s-11.9,8.2-17.3,10.346S129.3,250.276,129.3,250.276l-.3-11.35S118.445,233.746,115.572,223.128Z" fill="#e392ad" style="mix-blend-mode: multiply;isolation: isolate"/>
    <path id="Path_42" data-name="Path 42" d="M143.9,178.4s2.021-6.3,7.453-6.432l-6.316,5.485s5.621-4.421,10.926-3.474a14.087,14.087,0,0,1,7.958,7.642A47.514,47.514,0,0,0,143.9,178.4Z" fill="url(#linear-gradient-24)"/>
    <path id="Path_43" data-name="Path 43" d="M129.4,180.867s-.473-4.516-3.568-6.11l2.787,4.926s-2.487-2.747-4.145-3.174-8.055,1.962-11.262,9.1A79.721,79.721,0,0,1,129.4,180.867Z" fill="url(#linear-gradient-25)"/>
    <path id="Path_44" data-name="Path 44" d="M127.737,162.233c4.54-.755,13.982-16.418,23.487-17.682s12.134,14.689,10.365,16.963-12.13,1.965-12.13,1.965S136.866,162.815,133,162.2,127.737,162.233,127.737,162.233Z" fill="#e392ad" style="mix-blend-mode: multiply;isolation: isolate"/>
    <path id="Path_45" data-name="Path 45" d="M162.1,164.674s7.183,2.888,10.847,7.3,2.606,10.843,2.606,10.843l-1.208,5.273S176.4,171.786,162.1,164.674Z" fill="url(#linear-gradient-26)" style="mix-blend-mode: multiply;isolation: isolate"/>
    <path id="Path_46" data-name="Path 46" d="M118.369,165.247s-15.538,7.424-12.5,22.606l1.765,5.1S104.335,176.216,118.369,165.247Z" fill="url(#linear-gradient-27)" style="mix-blend-mode: multiply;isolation: isolate"/>
    <path id="Path_47" data-name="Path 47" d="M119.551,164.194s-9.885,1.755-14.874,9.814A16.955,16.955,0,0,1,119.551,164.194Z" fill="url(#linear-gradient-27)" style="mix-blend-mode: multiply;isolation: isolate"/>
    <path id="Path_48" data-name="Path 48" d="M128.93,161.767s7.536-8.213,18.892-6.869,13.767,9.776,13.767,9.776-1.247-12.357-12.149-14.312S128.93,161.767,128.93,161.767Z" fill="url(#linear-gradient-29)"/>
    <path id="Path_49" data-name="Path 49" d="M167.089,159.278s10.127,3.169,10.565,11.938C177.654,171.216,180.476,161.492,167.089,159.278Z" fill="url(#linear-gradient-30)"/>
    <path id="Path_50" data-name="Path 50" d="M133.951,204.552c-.979,1.555,3.5-.258,6.821,0s3.031.682,3.126-.027-2.463-3.835-5.4-3.361A6.239,6.239,0,0,0,133.951,204.552Z" fill="#e7ecff" style="mix-blend-mode: soft-light;isolation: isolate"/>
    <path id="Path_51" data-name="Path 51" d="M137.551,212.32a7.252,7.252,0,0,1-3.737-4.548l-1.835.937A7.6,7.6,0,0,0,137.551,212.32Z" fill="url(#linear-gradient-31)" style="mix-blend-mode: multiply;isolation: isolate"/>
    <path id="Path_52" data-name="Path 52" d="M131.925,188.507c-1.344-2.292-13.662-3.19-20.961,4.124-3.042,3.048-.021,14.965,4.481,18.116s12.985,1.352,15.853-5.3S133.27,190.8,131.925,188.507Zm-12.277,22.24c-6.615-.321-10.95-11.3-7.844-16.316,3.932-6.347,16.822-8.058,18.329-3.932C136.406,207.68,124.845,211,119.648,210.747Z" fill="#ffb8cb" style="mix-blend-mode: multiply;isolation: isolate"/>
    <path id="Path_53" data-name="Path 53" d="M144.229,186.118c.985-2.539,14.255-7.237,23.135-1.627,3.7,2.338,2.539,15.546-2.061,19.915-4.183,3.973-13.234,4.119-17.4-1.792S143.243,188.657,144.229,186.118Zm16.713,19.192c6.806-1.738,9.991-14.617,5.872-18.871-5.214-5.384-19.543-3.126-20.369,1.249C143,205.9,155.593,206.675,160.942,205.31Z" fill="#ffb8cb" style="mix-blend-mode: multiply;isolation: isolate"/>
    <path id="Path_54" data-name="Path 54" d="M131.925,188.088c-1.344-2.148-13.662-2.989-20.961,3.864-3.042,2.856-.021,14.021,4.481,16.973s12.985,1.267,15.853-4.964S133.27,190.235,131.925,188.088Zm-12.277,20.837c-6.615-.3-10.95-10.589-7.844-15.287,3.932-5.946,16.822-7.55,18.329-3.684C136.406,206.052,124.845,209.162,119.648,208.925Z" fill="url(#linear-gradient-11)"/>
    <path id="Path_55" data-name="Path 55" d="M144.229,185.849c.985-2.378,14.255-6.78,23.135-1.524,3.7,2.191,2.539,14.566-2.061,18.659-4.183,3.723-13.234,3.86-17.4-1.679S143.243,188.228,144.229,185.849Zm16.713,17.982c6.806-1.628,9.991-13.695,5.872-17.681-5.214-5.045-19.543-2.929-20.369,1.17C143,204.387,155.593,205.111,160.942,203.831Z" fill="url(#linear-gradient-33)"/>
    <path id="Path_56" data-name="Path 56" d="M132.677,191.43s6.6-2.651,12.042-.562l-.365-2.78a15.147,15.147,0,0,0-11.89,1.232Z" fill="url(#linear-gradient-34)"/>
    <path id="Path_57" data-name="Path 57" d="M170.74,189.954l1.921,4.82,2.407-.945-3.222-8.794Z" fill="url(#linear-gradient-11)"/>
    <path id="Path_58" data-name="Path 58" d="M109.934,194.691l-2.51.812.758,2.892,1.868.5Z" fill="#5143a1"/>
    <path id="Path_59" data-name="Path 59" d="M172.082,189.762l-2.529.427-1.158-4.813,3.449-.341Z" fill="#5143a1"/>
    <path id="Path_60" data-name="Path 60" d="M146.753,191.952s-.9,7.546,6.145,11.2a17.281,17.281,0,0,0,9.1-.4l-4.082-11.322Z" fill="#5cf1ff" style="mix-blend-mode: soft-light;isolation: isolate"/>
    <path id="Path_61" data-name="Path 61" d="M112.146,196.549s-.733,7.546,5.028,11.2a11.678,11.678,0,0,0,7.449-.4l-3.341-11.322Z" fill="#5cf1ff" style="mix-blend-mode: soft-light;isolation: isolate"/>
    <path id="Path_62" data-name="Path 62" d="M133.176,195.556a10.841,10.841,0,0,1,11-1.466L143.534,192a10.464,10.464,0,0,0-10.474,1.07Z" fill="#feb1c8" style="mix-blend-mode: multiply;isolation: isolate"/>
    <path id="Path_63" data-name="Path 63" d="M170.691,213.267s1.756.412,2.213,1.627-2.5,2.613-2.5,2.613Z" fill="#feb1c8" style="mix-blend-mode: multiply;isolation: isolate"/>
    <path id="Path_64" data-name="Path 64" d="M114.33,217.507s-1.975,2.191-1.709,2.986,2.57.964,2.57.964Z" fill="#feb1c8" style="mix-blend-mode: multiply;isolation: isolate"/>
    <path id="Path_65" data-name="Path 65" d="M128.93,161.767a27.957,27.957,0,0,1,14.971-.037c8.639,2.2,3.921,7.129,3.921,7.129S145.161,158.9,128.93,161.767Z" fill="url(#linear-gradient-36)"/>
    <path id="Path_66" data-name="Path 66" d="M149.459,140.6a2.965,2.965,0,0,1,1.386,4.009,6.679,6.679,0,0,1,5.432,1.1,6.3,6.3,0,0,0-2.653-2.145c-1.484-.474-1.61-2.969-1.61-2.969A5.706,5.706,0,0,0,149.459,140.6Z" fill="#fff" style="mix-blend-mode: soft-light;isolation: isolate"/>
    <path id="Path_67" data-name="Path 67" d="M149.84,150.44c.926.869-1.611,4.51-1.611,4.51L152.535,156s-1.532-1.484-1.39-2.778,1.723-1.785,1.723-1.785Z" fill="#fff" style="mix-blend-mode: soft-light;isolation: isolate"/>
    <path id="Path_68" data-name="Path 68" d="M125.148,266.072s1.942,29.793,20.076,30.943c20.236,1.283,21.316-23.874,18.8-33.982,3.747,15.224.431,34.329-18.394,34.739C126.33,298.193,125.148,266.072,125.148,266.072Z" fill="#e392ad" style="mix-blend-mode: multiply;isolation: isolate"/>
    <path id="Path_69" data-name="Path 69" d="M129.565,260.511s-.568,28.268,16.293,27.731c16.234-.517,15.752-21.692,15.752-21.692l.193,5.265s-4.713,21.735-17.4,19.8S129,268.218,129.565,260.511Z" fill="#e392ad" style="mix-blend-mode: multiply;isolation: isolate"/>
    <path id="Path_70" data-name="Path 70" d="M130.217,239.644s9.658,37.881,11.834,39.952-3.837-36.39-3.837-36.39Z" fill="url(#linear-gradient-3)" style="mix-blend-mode: multiply;isolation: isolate"/>
    <path id="Path_71" data-name="Path 71" d="M160.856,253.53l1.248-1.1s8.7,14.726,11.731,23.4-6.49,115.164-6.49,115.164l-10.56-.335s11.319-62.736,13.34-87.486a80.52,80.52,0,0,0-8.758-43.258Z" fill="#e392ad" style="mix-blend-mode: multiply;isolation: isolate"/>
    <path id="Path_72" data-name="Path 72" d="M136.371,390.779S121.351,292.3,122.3,279.6s7.267-19.085,7.267-19.085l-.109-4.13-4.316-.956s-5.874,15.819-6.821,24.252,6.829,111.1,6.829,111.1Z" fill="#e392ad" style="mix-blend-mode: multiply;isolation: isolate"/>
    <path id="Path_73" data-name="Path 73" d="M111.034,272.378s-9.578,10.742-17.157,17.816c0,0,1.9,4.8,12,6.568L97.5,306.236S106,358.53,116.614,391.12l8.534-.341s-7.587-98.882-6.829-111.1,6.821-24.252,6.821-24.252S118.809,263.962,111.034,272.378Z" fill="url(#linear-gradient-38)"/>
    <path id="Path_74" data-name="Path 74" d="M163.224,252.425S174.007,269.371,186.131,273L199.6,289.941s-.093,5.685-14.682,8.6l9.251,10.978s-6.072,48.008-19.741,81.036l-7.086.438s10.329-98.012,6.83-113.364A71.875,71.875,0,0,0,163.224,252.425Z" fill="url(#linear-gradient-38)"/>
    <path id="Path_75" data-name="Path 75" d="M125.187,272.378s-.544,33.858,17.168,54.826Z" fill="url(#linear-gradient-40)" style="mix-blend-mode: multiply;isolation: isolate"/>
    <path id="Path_76" data-name="Path 76" d="M168.4,275.7s3.96,24.653-20,39.847C148.4,315.546,164.6,298.467,168.4,275.7Z" fill="url(#linear-gradient-40)" style="mix-blend-mode: multiply;isolation: isolate"/>
    <path id="Path_77" data-name="Path 77" d="M38.172,319.941l2.764,20.809S57.372,332,57.687,308.762c0,0-2.21,15.663-14.084,23.116L42.214,312.93l-.777-1.286Z" fill="#e392ad" style="mix-blend-mode: multiply;isolation: isolate"/>
    <path id="Path_78" data-name="Path 78" d="M42.719,303.173l-3.789.852a15.858,15.858,0,0,1,3.6-5.876Z" fill="#e392ad" style="mix-blend-mode: multiply;isolation: isolate"/>
    <path id="Path_79" data-name="Path 79" d="M62.03,213.918c-1.08,5.11-3.4,7.12-3.4,7.12s-2.27,11.93-2.08,13.92c-8.9,1.74-21.28,8.25-23.94,11.78-2.44,3.25-.45,15.9-.12,17.92l-2.24-10.82v-.01c-.73-4.56-.98-7.69-.98-7.69l-.76-9.38c1.32-6.06,4.86-5.11,4.86-5.11a60.007,60.007,0,0,0,2.02,10.74l.57-.38a93.22,93.22,0,0,1-1.39-11.69c1.77-5.11,6.13-3.72,6.13-3.72,1.07,6.19,2.46,12.44,2.46,12.44-1.2-8.02-.38-20.53-.38-20.53,1.64,3.73,6.38,4.3,6.38,4.3-.95,4.35,0,13.53,0,13.53l1.01-.59c.35-4.43,1.02-9.18,1.8-13.72C58.86,220.618,61.85,214.308,62.03,213.918Z" fill="url(#linear-gradient-42)" style="mix-blend-mode: multiply;isolation: isolate"/>
    <path id="Path_80" data-name="Path 80" d="M42.782,218.509l18.126-9.584S67.05,220.6,49.161,222.8C49.161,222.8,43.6,224.036,42.782,218.509Z" fill="url(#linear-gradient-43)"/>
    <path id="Path_81" data-name="Path 81" d="M36.571,227.053l12.5-8.485s2.845,4.044.344,7.764c-2.154,3.205-9.186,6.278-14.751,5.044C34.659,231.376,33.94,229.12,36.571,227.053Z" fill="url(#linear-gradient-43)"/>
    <path id="Path_82" data-name="Path 82" d="M33.016,231.457l11.053-.853s.429,6-5.269,6.726a18.484,18.484,0,0,1-9.984-1.184A4.175,4.175,0,0,1,33.016,231.457Z" fill="url(#linear-gradient-43)"/>
    <path id="Path_83" data-name="Path 83" d="M54.489,212.32c-2.53,1.337,1.541.947,3.53,0a8.194,8.194,0,0,1,2.889-3.4Z" fill="#ffe4db"/>
    <path id="Path_84" data-name="Path 84" d="M49.066,218.568s-3.631,2.367-4.2,4.643c0,0-4.8,2.471-3.536.856s7.736-5.5,7.736-5.5Z" fill="#ffe4db"/>
    <path id="Path_85" data-name="Path 85" d="M44.069,230.6s-2.3-.31-4.1,2.39c0,0-4.307.263-3.54-1.111S44.069,230.6,44.069,230.6Z" fill="#ffe4db"/>
    <path id="Path_86" data-name="Path 86" d="M66.593,266.072s-12.758,7.7-15.916,11.49a43.448,43.448,0,0,0-3.79,4.926l8.843-5.3S59.393,273.023,66.593,266.072Z" fill="url(#linear-gradient-46)" style="mix-blend-mode: multiply;isolation: isolate"/>
    <path id="Path_87" data-name="Path 87" d="M57.782,250.12S46.635,252.046,46,264.93c0,0-.058-18.315,11.7-15.784Z" fill="url(#linear-gradient-46)" style="mix-blend-mode: multiply;isolation: isolate"/>
    <path id="Path_88" data-name="Path 88" d="M64.41,243.3c.793,2.306,8.662-3.654,8.662-3.654s-6.107,8.295-5.567,16.443c0,0-1.7-5.115-6.1-5.683a15.654,15.654,0,0,0-8.614,1.837,20.573,20.573,0,0,1,5-2.121S62.733,247.244,64.41,243.3Z" opacity="0.5" fill="url(#linear-gradient-48)" style="mix-blend-mode: multiply;isolation: isolate"/>
    <path id="Path_89" data-name="Path 89" d="M42.593,300.3a24.228,24.228,0,0,0,13.137-6.7s-5.179,7.263-13.011,9.569Z" fill="#feb1c8" style="mix-blend-mode: multiply;isolation: isolate"/>
    <path id="Path_90" data-name="Path 90" d="M82.6,298.4s9.408,20.4,12.046,42.948c0,0,1.881-33.916-12.046-54.664Z" opacity="0.8" fill="url(#linear-gradient-27)" style="mix-blend-mode: multiply;isolation: isolate"/>
    <path id="Path_91" data-name="Path 91" d="M64.508,328.278s12.127,15.158,12.885,32.968c0,0,3.789-27.1-12.234-34.042Z" opacity="0.8" fill="url(#linear-gradient-50)" style="mix-blend-mode: multiply;isolation: isolate"/>
    <path id="Path_92" data-name="Path 92" d="M29.266,348.741s16.548-2.274,26.464-19.7c0,0-2.4,20.084-17.937,23.684Z" opacity="0.8" fill="url(#linear-gradient-27)" style="mix-blend-mode: multiply;isolation: isolate"/>
    <path id="Path_93" data-name="Path 93" d="M60.056,313.309s3.884,24.443,6.537,42.821,1.515,20.842,1.515,20.842,1.309-10.117-.568-28.626A179.654,179.654,0,0,0,60.056,313.309Z" opacity="0.8" fill="url(#linear-gradient-50)" style="mix-blend-mode: multiply;isolation: isolate"/>
    <path id="Path_94" data-name="Path 94" d="M94.649,352.215l-.772-17.6s5.554,43.249,16.166,56.319l3.413-2.214s-4.992-24.8-9.381-47.368l12.539,49.768-16.674-.126S95.927,364.088,94.649,352.215Z" fill="#e392ad" style="mix-blend-mode: multiply;isolation: isolate"/>
    <path id="Path_95" data-name="Path 95" d="M218.74,283.36S206.1,301.249,204.375,323.1c0,0,4.7-19.456,14.365-29.308Z" opacity="0.8" fill="url(#linear-gradient-26)" style="mix-blend-mode: multiply;isolation: isolate"/>
    <path id="Path_96" data-name="Path 96" d="M212.866,313.309s1.9,34.3-2.084,53.621H207.94S215.708,341.162,212.866,313.309Z" opacity="0.8" fill="url(#linear-gradient-54)" style="mix-blend-mode: multiply;isolation: isolate"/>
    <path id="Path_97" data-name="Path 97" d="M202.7,354.209l1.674-22.33s-6.1,44.428-15.571,58.592l7.809-.046S201.92,370.652,202.7,354.209Z" opacity="0.8" fill="url(#linear-gradient-27)" style="mix-blend-mode: multiply;isolation: isolate"/>
    <path id="Path_98" data-name="Path 98" d="M211.557,370.4s4.973-10.381,13.562-12.2,25.451,2.976,25.451,2.976a16.715,16.715,0,0,0-17.619-9.845c-13.137,1.516-15.158,8.022-17.748,11.937s-4.237,4.486-4.237,4.486Z" opacity="0.8" fill="url(#linear-gradient-27)" style="mix-blend-mode: multiply;isolation: isolate"/>
    <path id="Path_99" data-name="Path 99" d="M218.108,363.078s6.506-4.99,17.937-3.348,14.021,3.979,14.021,3.979S232.572,357.267,218.108,363.078Z" opacity="0.8" fill="url(#linear-gradient-57)" style="mix-blend-mode: multiply;isolation: isolate"/>
    <path id="Path_100" data-name="Path 100" d="M206.384,361.554s6.911-27.213,2.623-52.034c0,0-6.62,6.2-6.306,44.689Z" fill="url(#linear-gradient-58)" style="mix-blend-mode: multiply;isolation: isolate"/>
    <path id="Path_101" data-name="Path 101" d="M178.193,390.471s12.041-40.667,11.894-74.925c0,0-3.881,42.93-15.656,75.01Z" fill="#e392ad" style="mix-blend-mode: multiply;isolation: isolate"/>
    <path id="Path_102" data-name="Path 102" d="M221.393,366.93l1.326,9.948s12.751,1.842,12.912,1.584,0-13.237,0-13.237Z" fill="url(#linear-gradient-2)"/>
    <path id="Path_103" data-name="Path 103" d="M235.73,362.067c-17.811-2.779-24,9.1-24,9.1L214,381.33c21.186,13.112,51.9,10.059,51.9,10.059S253.54,364.846,235.73,362.067Zm-20.59,17.369-.758-6.253s1.951-10.543,19.705-9.022c13.9,1.191,28.137,24.638,28.137,24.638C234.665,393.4,215.14,379.436,215.14,379.436Z" fill="url(#linear-gradient-60)"/>
    <path id="Path_104" data-name="Path 104" d="M215.859,378.462S204.753,383.6,202.6,385.5a7.584,7.584,0,0,0,0,3.841c.6,1.559,4.862,1.559,7.42.706s6.347-7.862,6.347-7.862Z" fill="url(#linear-gradient-12)"/>
    <path id="Path_105" data-name="Path 105" d="M209.683,391.505s3.31-15,14.047-19.67,24.9,9.18,25.529,19.917Z" fill="url(#linear-gradient-62)"/>
    <path id="Path_106" data-name="Path 106" d="M211.166,386.848H223.54s1.84-10.511,5.183-15.751C228.723,371.1,217.3,370.449,211.166,386.848Z" fill="#e392ad" style="mix-blend-mode: multiply;isolation: isolate"/>
    <path id="Path_107" data-name="Path 107" d="M216.28,377.728a22.135,22.135,0,0,1,12.268-.376c7.021,1.686,17.183,12.063,18.056,12.505a10.7,10.7,0,0,0,2.424.7s-2.8-14.88-14.363-18.8S216.28,377.728,216.28,377.728Z" fill="#bfa1bc" style="mix-blend-mode: multiply;isolation: isolate"/>
    <path id="Path_108" data-name="Path 108" d="M226.9,386.848s.817-10.732,2.9-15.088c0,0,6.341.92,9.531,3.327l-.7,12.045Z" fill="#e392ad" style="mix-blend-mode: multiply;isolation: isolate"/>
    <path id="Path_109" data-name="Path 109" d="M251.08,380.448c.05,2.59-1.44,6-2.06,7.33l-.01.02c-.14.28-.24.48-.26.53l-.01.01c-3.85.57-4.56-2.22-4.56-2.22l.94-1.99c-.01.01-.02.02-.03.02a3.306,3.306,0,0,1-3.42-.02c-1.9-1.09-3.38-4.5-3.38-4.5l.69-2.7a10.363,10.363,0,0,1-.82,1.04,2.981,2.981,0,0,1-.79.65c-.69.31-6.25-1.14-6.82-2.31a10.683,10.683,0,0,1-.17-3.48l.01-.02c.11-2.19.38-4.55.38-4.55l-2.11-.38a24.638,24.638,0,0,1-3.08,5.07l-.01.02a3.757,3.757,0,0,1-.32.28,51.849,51.849,0,0,1-6.51,3.06c-3.15-1.15-3.44-3.4-3.24-4.87a5.49,5.49,0,0,1,.38-1.43c2.53-3.54,2.74-8.55,6.79-8.45s5.67,2.54,5.67,2.54a7.06,7.06,0,0,0,2.43.43,11.4,11.4,0,0,1,5.99.1c2.86.98,4.59,4.7,4.59,4.7s4.61,2.53,5.43,3.73.57,4.67.57,4.67C249.25,378.108,251.08,380.448,251.08,380.448Z" fill="url(#linear-gradient-12)"/>
    <path id="Path_110" data-name="Path 110" d="M184.921,298.542l-10.051-6.176A31.88,31.88,0,0,1,184.921,298.542Z" fill="#e392ad" style="mix-blend-mode: multiply;isolation: isolate"/>
    <path id="Path_111" data-name="Path 111" d="M105.877,296.762s7.9-6.947,12.548-7.983A94.455,94.455,0,0,0,105.877,296.762Z" fill="#e392ad" style="mix-blend-mode: multiply;isolation: isolate"/>
    <g id="Group_1" data-name="Group 1">
      <path id="Path_112" data-name="Path 112" d="M90.2,391.389S80.052,348.561,77.107,316.4c0,0,74.252-10.578,129.833-4.564,0,0-2.4,42.72-8.62,79.554Z" fill="url(#linear-gradient-64)"/>
      <path id="Path_113" data-name="Path 113" d="M148.4,311.9,90.2,391.389h47.35L190.087,311.9S165.408,309.971,148.4,311.9Z" fill="#fff" opacity="0.5" style="mix-blend-mode: soft-light;isolation: isolate"/>
      <path id="Path_114" data-name="Path 114" d="M77.107,316.4l2.24-3.335s63.008-9.212,124.028-3.4l3.565,2.17S135.013,308.556,77.107,316.4Z" fill="url(#linear-gradient-65)"/>
      <path id="Path_115" data-name="Path 115" d="M128.752,357.615s8.343-13.966,22.172-15.563C150.924,342.052,149.6,351.28,128.752,357.615Z" fill="#fff"/>
      <path id="Path_116" data-name="Path 116" d="M184.921,308.341v2.995l-21.7-.157v-3.428S179.329,308.026,184.921,308.341Z" fill="#fff"/>
      <path id="Path_117" data-name="Path 117" d="M86.115,312.186v3.06l15.945-1.53.723-3.286S90.475,311.637,86.115,312.186Z" fill="#fff"/>
      <path id="Path_118" data-name="Path 118" d="M88.669,384.644s8.753,5.108,53.686,5.926,56.712-3.743,56.712-3.743l-.747,4.562H90.2Z" fill="#ebc2d4" style="mix-blend-mode: multiply;isolation: isolate"/>
    </g>
    <path id="Path_119" data-name="Path 119" d="M225.58,372.948l-.01.02a3.757,3.757,0,0,1-.32.28,51.849,51.849,0,0,1-6.51,3.06c-3.15-1.15-3.44-3.4-3.24-4.87,1.53.8,9.11-.92,9.87-.54S225.58,372.948,225.58,372.948Z" fill="#e392ad" style="mix-blend-mode: multiply;isolation: isolate"/>
    <path id="Path_120" data-name="Path 120" d="M238.99,375.5a6.176,6.176,0,0,1-.83,2.47,2.981,2.981,0,0,1-.79.65c-.69.31-6.25-1.14-6.82-2.31a10.683,10.683,0,0,1-.17-3.48l.01-.02s2.99-1.97,5.3-1.05S238.99,374.078,238.99,375.5Z" fill="#e392ad" style="mix-blend-mode: multiply;isolation: isolate"/>
    <path id="Path_121" data-name="Path 121" d="M246.07,381.618a4.455,4.455,0,0,1-.95,2.51c-.01.01-.02.02-.03.02a3.306,3.306,0,0,1-3.42-.02c-1.9-1.09-3.38-4.5-3.38-4.5.32-1.26,1.96-1.85,3.99-.95A12.721,12.721,0,0,1,246.07,381.618Z" fill="#e392ad" style="mix-blend-mode: multiply;isolation: isolate"/>
    <path id="Path_122" data-name="Path 122" d="M249.02,387.778l-.01.02a.752.752,0,0,1-.26.53l-.01.01c-3.85.57-4.56-2.22-4.56-2.22.46-.98,2.55-1.09,3.69-.38A2.315,2.315,0,0,1,249.02,387.778Z" fill="#e392ad" style="mix-blend-mode: multiply;isolation: isolate"/>
    <path id="Path_123" data-name="Path 123" d="M202.6,389.34a6.468,6.468,0,0,0,5.857.28c3.458-1.374.894-7.816.894-7.816l6.194-3.114s-4.53,6.951-5.525,11.356C210.024,390.046,203.947,391.76,202.6,389.34Z" fill="#e392ad" style="mix-blend-mode: multiply;isolation: isolate"/>
    <path id="Path_124" data-name="Path 124" d="M216.371,370.308a14.026,14.026,0,0,1,7.169-.725s-1.047-2.947-3.584-2.653S216.371,370.308,216.371,370.308Z" fill="#ffe4db"/>
    <path id="Path_125" data-name="Path 125" d="M233.8,370.842s4.074-.169,5.448,2.01c0,0-1.232-3.648-2.937-3.506A3.391,3.391,0,0,0,233.8,370.842Z" fill="#ffe4db"/>
    <path id="Path_126" data-name="Path 126" d="M242.18,377.494s3.083.9,3.89,2.936c0,0,0-3.792-1.419-4.122S242.18,377.494,242.18,377.494Z" fill="#ffe4db"/>
    <path id="Path_127" data-name="Path 127" d="M246.6,384.54s1.915.415,2.424,1.243c0,0,.786-2.6-.446-2.937S246.6,384.54,246.6,384.54Z" fill="#ffe4db"/>
    <path id="Path_128" data-name="Path 128" d="M241.35,369.328a39.719,39.719,0,0,1-2.37,7.6,11.813,11.813,0,0,0,3.2-7.13Z" fill="url(#linear-gradient-46)" style="mix-blend-mode: multiply;isolation: isolate"/>
    <path id="Path_129" data-name="Path 129" d="M247.35,377.728l-1.635,5.437s3.469-1.628,2.9-4.921Z" fill="url(#linear-gradient-67)" style="mix-blend-mode: multiply;isolation: isolate"/>
    <path id="Path_130" data-name="Path 130" d="M226.676,371.513l1.664-7.415.708.215-.388,3.565,2.11.38L230.5,371.1S227.6,370.867,226.676,371.513Z" fill="#e392ad" style="mix-blend-mode: multiply;isolation: isolate"/>
    <path id="Path_131" data-name="Path 131" d="M184.921,298.542s10.324-3.17,14.682-8.6c0,0-1.936,9.273-13.047,10.542Z" fill="#e392ad" style="mix-blend-mode: multiply;isolation: isolate"/>
    <path id="Path_132" data-name="Path 132" d="M93.877,290.194s-.8,6.547,9.83,9.021l3.3-3.407A31.165,31.165,0,0,1,93.877,290.194Z" fill="#e392ad" style="mix-blend-mode: multiply;isolation: isolate"/>
    <path id="Path_133" data-name="Path 133" d="M171.4,262.719s5.85,13.329,10.019,17.686,15.6,6.283,15.6,6.283L186.131,273S178.266,271.107,171.4,262.719Z" opacity="0.5" fill="url(#linear-gradient-50)" style="mix-blend-mode: multiply;isolation: isolate"/>
    <path id="Path_134" data-name="Path 134" d="M122.851,258.412s-4.437,11.318-7.279,20.6-15.138,10.421-15.138,10.421S113.74,268.219,122.851,258.412Z" opacity="0.5" fill="url(#linear-gradient-50)" style="mix-blend-mode: multiply;isolation: isolate"/>
    <path id="Path_135" data-name="Path 135" d="M35.44,273.924l8.629,4.9-2.489.193L35.88,275Z" fill="#feb1c8" style="mix-blend-mode: multiply;isolation: isolate"/>
    <path id="Path_136" data-name="Path 136" d="M37.414,253.309c1.864-4.8,13.952-10.647,16.706-9.616s1.936,7.225,1.936,7.225-7.346.744-9.963,12.115c0,0-3.474,3.626-5.887,1.625S37.414,253.309,37.414,253.309Z" opacity="0.5" fill="url(#linear-gradient-3)" style="mix-blend-mode: multiply;isolation: isolate"/>
    <path id="Path_137" data-name="Path 137" d="M218.74,293.794a218.978,218.978,0,0,0,10.731,33.41c7.739,19.143,27.135,35.663,27.135,35.663S234.628,317.282,218.74,293.794Z" fill="#fff" opacity="0.2" style="mix-blend-mode: soft-light;isolation: isolate"/>
    <path id="Path_138" data-name="Path 138" d="M190.087,274.7a37.608,37.608,0,0,0,7.46,8.234c4.169,3.158,16.8,7,16.8,7l4.392-6.581a113.565,113.565,0,0,0-16.136-5.65C194.617,275.706,190.087,274.7,190.087,274.7Z" fill="#fff" opacity="0.2" style="mix-blend-mode: soft-light;isolation: isolate"/>
    <path id="Path_139" data-name="Path 139" d="M82.6,286.688a87.334,87.334,0,0,1,4.478,8.524s5.624-5.454,9.161-9.117a27.112,27.112,0,0,0,5.036-7.077C95.5,280.973,85.764,283.871,82.6,286.688Z" fill="#fff" opacity="0.2" style="mix-blend-mode: soft-light;isolation: isolate"/>
    <path id="Path_140" data-name="Path 140" d="M147.021,178.228a14.927,14.927,0,0,1,11.253-3.123A36.322,36.322,0,0,0,147.021,178.228Z" fill="url(#linear-gradient-71)" style="mix-blend-mode: multiply;isolation: isolate"/>
    <path id="Path_141" data-name="Path 141" d="M149.108,178.229s7.787-2.523,12.481-.286A25.515,25.515,0,0,0,149.108,178.229Z" fill="url(#linear-gradient-72)" style="mix-blend-mode: multiply;isolation: isolate"/>
    <path id="Path_142" data-name="Path 142" d="M128.93,180.945s-3.916-4.248-7.565-3.778Z" fill="url(#linear-gradient-73)" style="mix-blend-mode: multiply;isolation: isolate"/>
    <path id="Path_143" data-name="Path 143" d="M127.737,181.162s-5.761-4.29-10.591-1.137C117.146,180.025,121.365,178.016,127.737,181.162Z" fill="url(#linear-gradient-74)" style="mix-blend-mode: multiply;isolation: isolate"/>
    <path id="Path_144" data-name="Path 144" d="M50.439,222.624a6.508,6.508,0,0,0-1.373-4.056,5.12,5.12,0,0,1,2.273,3.9Z" fill="url(#linear-gradient-42)" style="mix-blend-mode: multiply;isolation: isolate"/>
    <path id="Path_145" data-name="Path 145" d="M43.109,230.593l-8.45.783S37.423,230.209,43.109,230.593Z" fill="url(#linear-gradient-76)" style="mix-blend-mode: multiply;isolation: isolate"/>
  </g>
</svg>
